<?xml version="1.0" encoding="UTF-8" standalone="no"?>
<!-- Created with Inkscape (http://www.inkscape.org/) -->

<svg
   width="42.166573mm"
   height="42.107445mm"
   viewBox="0 0 42.166573 42.107445"
   version="1.1"
   id="svg1"
   xml:space="preserve"
   xmlns:inkscape="http://www.inkscape.org/namespaces/inkscape"
   xmlns:sodipodi="http://sodipodi.sourceforge.net/DTD/sodipodi-0.dtd"
   xmlns="http://www.w3.org/2000/svg"
   xmlns:svg="http://www.w3.org/2000/svg"><sodipodi:namedview
     id="namedview1"
     pagecolor="#ffffff"
     bordercolor="#000000"
     borderopacity="0.25"
     inkscape:showpageshadow="2"
     inkscape:pageopacity="0.0"
     inkscape:pagecheckerboard="0"
     inkscape:deskcolor="#d1d1d1"
     inkscape:document-units="mm" /><defs
     id="defs1" /><g
     inkscape:label="Layer 1"
     inkscape:groupmode="layer"
     id="layer1"
     transform="translate(-95.91878,-145.58358)"><path
       d="m 112.41326,187.3954 c -3.90469,-0.88855 -7.40838,-2.89798 -10.43204,-5.98297 -6.370257,-6.49943 -7.848977,-15.87602 -3.823557,-24.24522 0.95879,-1.99341 0.97092,-2.05795 0.65322,-3.47759 l -0.32371,-1.44648 2.125887,-2.12589 2.12589,-2.1259 1.4524,0.32504 c 1.40131,0.31359 1.50858,0.29667 3.04925,-0.48106 0.87827,-0.44335 2.52475,-1.13136 3.65884,-1.52892 1.90446,-0.66761 2.3753,-0.72283 6.16303,-0.72283 3.78773,0 4.25857,0.0552 6.16303,0.72283 1.13409,0.39756 2.78056,1.08557 3.65883,1.52892 1.54068,0.77773 1.64795,0.79465 3.04925,0.48106 l 1.45241,-0.32504 2.14239,2.14239 2.14239,2.14239 -0.37447,1.40069 -0.37446,1.40069 1.08935,2.25774 c 1.70376,3.53116 2.06372,5.14003 2.07384,9.2692 0.007,2.95535 -0.096,3.93464 -0.59826,5.67357 -2.04617,7.08455 -7.50811,12.63357 -14.60347,14.83627 -1.98291,0.61558 -8.25967,0.78411 -10.47004,0.28111 z m 9.30753,-1.76176 c 1.91794,-0.46239 5.3047,-2.1165 7.16582,-3.49984 4.57892,-3.40343 7.50683,-9.34723 7.51955,-15.26508 0.007,-3.44836 -0.57325,-6.00104 -2.04155,-8.97496 -1.18169,-2.39342 -1.21952,-2.54135 -0.94716,-3.70416 l 0.28368,-1.21119 -1.51708,-1.52948 -1.51708,-1.52947 -1.32943,0.30687 c -1.23649,0.28541 -1.40222,0.26116 -2.37048,-0.34694 -1.28952,-0.80985 -4.07351,-1.93189 -5.81554,-2.34385 -1.68945,-0.39953 -6.48866,-0.39953 -8.17811,0 -1.74202,0.41196 -4.52601,1.534 -5.81553,2.34385 -0.96827,0.6081 -1.13399,0.63235 -2.37048,0.34694 l -1.32943,-0.30687 -1.51708,1.52947 -1.51708,1.52948 0.2895,1.23662 c 0.27842,1.18925 0.24711,1.31812 -0.817127,3.36373 -4.36161,8.38356 -2.04942,18.96706 5.360697,24.53734 2.64428,1.98774 5.74161,3.34302 8.73303,3.82124 1.71497,0.27417 6.03843,0.10432 7.73088,-0.3037 z m -6.6427,-2.59748 c -1.23183,-0.57032 -2.3612,-1.69784 -2.76129,-2.75676 -0.6871,-1.81856 -0.0986,-4.62153 1.21179,-5.77169 1.96077,-1.72101 5.10699,-1.72101 7.06776,0 1.3104,1.15016 1.89889,3.95313 1.21179,5.77169 -0.6422,1.69972 -2.90345,3.24675 -4.74567,3.24675 -0.50932,0 -1.40229,-0.22049 -1.98438,-0.48999 z m 2.73113,-1.16474 c 0.14229,-0.74637 -0.43887,-1.28585 -1.03912,-0.96461 -0.49823,0.26664 -0.6726,1.04863 -0.31383,1.4074 0.3417,0.3417 1.26073,0.0409 1.35295,-0.44279 z m -2.06967,-0.29912 c 0,-1.48005 1.82209,-2.03064 2.47045,-0.74651 0.20205,0.40019 0.31425,0.87644 0.24933,1.05834 -0.24437,0.68467 0.55627,0.29088 1.61083,-0.79229 l 1.09335,-1.12302 -0.70824,-0.0833 c -0.77887,-0.0916 -1.11824,-0.4095 -1.39248,-1.30427 -0.22268,-0.72656 0.96142,-2.06107 1.60846,-1.81278 0.34025,0.13057 0.32696,0.0186 -0.0779,-0.65626 -0.56229,-0.93724 -2.28162,-2.14476 -2.19716,-1.5431 0.122,0.86906 -0.0505,1.30957 -0.67225,1.71697 -0.61274,0.40149 -0.71018,0.40149 -1.32292,0 -0.46772,-0.30646 -0.66146,-0.67123 -0.66146,-1.24541 v -0.812 l -0.85053,0.49674 c -0.94157,0.5499 -2.04963,2.15124 -1.47253,2.12805 0.95674,-0.0384 1.30096,0.13061 1.5386,0.75562 0.37635,0.9899 -0.19266,2.04739 -1.20244,2.23467 l -0.79122,0.14675 1.09335,1.11218 c 1.24652,1.268 1.68477,1.39016 1.68477,0.46963 z m -1.63049,-2.50027 c 0.55426,-0.35132 0.27,-1.47389 -0.3973,-1.56895 -0.69167,-0.0985 -1.09145,0.83407 -0.6075,1.41718 0.36589,0.44088 0.5135,0.46318 1.0048,0.15177 z m 6.91162,-0.15177 c 0.48394,-0.58311 0.0842,-1.51571 -0.6075,-1.41718 -0.96373,0.13729 -0.8521,1.77353 0.12262,1.79731 0.0913,0.002 0.30952,-0.16883 0.48488,-0.38013 z m -3.21784,-3.74 c 0.11057,-0.77387 -0.60662,-1.34327 -1.13725,-0.90289 -0.41668,0.34581 -0.52818,1.10341 -0.20932,1.42227 0.37342,0.37342 1.26833,0.0283 1.34657,-0.51938 z m -11.60374,-1.68294 c -2.91649,-0.88498 -5.01163,-3.75104 -5.01163,-6.85566 0,-5.19589 5.33567,-8.67835 9.78337,-6.38536 2.47649,1.27674 3.83379,3.57974 3.82667,6.49291 -0.004,1.58503 -0.12607,2.08084 -0.81509,3.30729 -1.63752,2.91479 -4.84458,4.33255 -7.78332,3.44082 z m 2.8875,-4.35948 c 1.97298,-1.02027 1.70957,-4.39294 -0.40591,-5.19724 -1.36362,-0.51845 -3.25989,1.03111 -3.25989,2.66385 0,1.27684 1.37699,2.91042 2.45326,2.91042 0.26589,0 0.81153,-0.16967 1.21254,-0.37703 z m 14.77009,4.2184 c -2.39904,-0.91859 -4.2053,-3.28222 -4.57293,-5.984 -0.35846,-2.63446 1.38775,-5.85443 3.85844,-7.11489 4.74091,-2.41863 10.17314,1.48379 9.73111,6.99064 -0.20603,2.56668 -1.54936,4.62378 -3.76452,5.7648 -1.34763,0.69416 -3.90024,0.86108 -5.2521,0.34345 z m 3.60199,-4.37468 c 0.9492,-0.74664 1.36827,-2.12932 0.99143,-3.27116 -0.40381,-1.22357 -1.11787,-1.79805 -2.27572,-1.83087 -0.78402,-0.0222 -1.12572,0.13983 -1.7367,0.82364 -2.10081,2.35121 0.60299,6.18039 3.02099,4.27839 z m -11.64635,-8.97831 c -1.16873,-0.28547 -2.01823,-0.88254 -2.89943,-2.03786 -0.6688,-0.87685 -0.74522,-1.18691 -0.74522,-3.0236 0,-1.89485 0.0609,-2.12192 0.8218,-3.0633 1.20201,-1.48715 2.28519,-2.03123 4.04065,-2.02962 3.05232,0.003 5.05942,2.03152 5.05942,5.11392 0,1.58611 -0.34834,2.55143 -1.2736,3.52935 -1.28294,1.35596 -3.23065,1.94417 -5.00362,1.51111 z m 1.99051,-1.49174 c 0.0434,-0.30378 -0.1114,-0.71027 -0.34401,-0.90332 -0.5921,-0.49139 -1.322,0.22641 -1.06229,1.04468 0.23821,0.75054 1.29403,0.64441 1.4063,-0.14136 z m -2.06329,-0.32081 c 0,-0.93093 0.43442,-1.37583 1.34344,-1.37583 0.84815,0 1.36854,0.55365 1.36854,1.45602 0,0.90757 0.25986,0.8355 1.57636,-0.43719 l 1.13562,-1.09783 -0.87035,-0.23536 c -1.64341,-0.44441 -1.69183,-2.70539 -0.0649,-3.03078 l 0.79327,-0.15865 -0.54518,-0.76564 c -0.63554,-0.89253 -2.14945,-1.79391 -2.07455,-1.23519 0.11387,0.8494 -0.0623,1.28912 -0.67787,1.69249 -0.61274,0.40148 -0.71018,0.40148 -1.32292,0 -0.46247,-0.30302 -0.66146,-0.6724 -0.66146,-1.22785 0,-0.79389 -5.4e-4,-0.79417 -0.77769,-0.39229 -0.71846,0.37154 -1.60356,1.34204 -1.60356,1.75829 0,0.0974 0.30187,0.25279 0.67082,0.34539 1.5012,0.37678 1.35603,2.59417 -0.19734,3.01423 l -0.87035,0.23536 1.13562,1.09783 c 1.33661,1.29214 1.6425,1.35862 1.6425,0.357 z m -1.37149,-3.16177 c -0.0965,-0.83891 -1.16191,-1.19617 -1.43612,-0.48158 -0.26196,0.68265 0.10055,1.20919 0.83251,1.20919 0.59373,0 0.67593,-0.0991 0.60361,-0.72761 z m 6.79545,-0.0661 c 0,-0.48491 -0.15921,-0.68407 -0.59649,-0.74617 -0.3578,-0.0508 -0.6603,0.0816 -0.75592,0.33073 -0.26343,0.68651 0.10581,1.25391 0.75592,1.1616 0.43728,-0.0621 0.59649,-0.26126 0.59649,-0.74616 z m -3.46297,-2.98735 c 0.35903,-0.56918 -0.33983,-1.34383 -0.98797,-1.09511 -0.51844,0.19894 -0.58303,0.92702 -0.12304,1.38701 0.38922,0.38923 0.7394,0.29723 1.11101,-0.2919 z"
       style="fill:#000000"
       id="path1-26" /></g></svg>
