<?xml version="1.0" encoding="UTF-8" standalone="no"?>
<!-- Created with Inkscape (http://www.inkscape.org/) -->

<svg
   width="40.698208mm"
   height="56.089302mm"
   viewBox="0 0 40.698208 56.089302"
   version="1.1"
   id="svg1"
   xml:space="preserve"
   xmlns:inkscape="http://www.inkscape.org/namespaces/inkscape"
   xmlns:sodipodi="http://sodipodi.sourceforge.net/DTD/sodipodi-0.dtd"
   xmlns="http://www.w3.org/2000/svg"
   xmlns:svg="http://www.w3.org/2000/svg"><sodipodi:namedview
     id="namedview1"
     pagecolor="#ffffff"
     bordercolor="#000000"
     borderopacity="0.25"
     inkscape:showpageshadow="2"
     inkscape:pageopacity="0.0"
     inkscape:pagecheckerboard="0"
     inkscape:deskcolor="#d1d1d1"
     inkscape:document-units="mm" /><defs
     id="defs1" /><g
     inkscape:label="Layer 1"
     inkscape:groupmode="layer"
     id="layer1"
     transform="translate(-151.52469,-99.484052)"><path
       d="m 160.68852,154.92484 c -2.24394,-0.92259 -3.83619,-2.3778 -4.92972,-4.50546 -0.86892,-1.69063 -0.92605,-1.95847 -0.92605,-4.34199 0,-2.23308 0.0876,-2.71862 0.72465,-4.01576 1.31408,-2.67573 3.87934,-4.68915 6.72779,-5.28049 1.46375,-0.30387 1.78403,-0.63057 0.89485,-0.91279 -1.24541,-0.39527 -4.51989,-2.84176 -6.09833,-4.55629 -5.58198,-6.06323 -7.04712,-13.99575 -3.99353,-21.62171 1.45727,-3.63938 4.24626,-7.10624 7.42958,-9.23536 l 1.45168,-0.970939 h 9.89802 9.89802 l 1.38969,0.922419 c 4.32318,2.86956 7.42579,7.49469 8.61053,12.83591 1.14174,5.14734 0.13258,10.51132 -2.88711,15.34583 -1.64626,2.63566 -5.96811,6.39868 -8.63205,7.51589 -0.46607,0.19546 0.38558,0.62649 1.59673,0.80811 1.5303,0.22948 4.11227,1.95204 5.24935,3.50211 1.93009,2.63108 2.39121,6.14584 1.20808,9.20827 -0.88788,2.29822 -3.23505,4.56552 -5.5544,5.36539 -1.65789,0.57175 -2.0579,0.59278 -11.1125,0.58414 -9.31279,-0.009 -9.40592,-0.0144 -10.94528,-0.64728 z m 21.19214,-2.66459 c 2.26018,-0.94438 3.74769,-2.85263 4.16252,-5.33989 0.42381,-2.54111 -1.31641,-5.63355 -3.82605,-6.79901 -1.11514,-0.51787 -1.72379,-0.55819 -9.6003,-0.63593 -5.58075,-0.0551 -8.89797,0.0184 -9.86126,0.21834 -3.98419,0.82712 -6.26736,5.29634 -4.59412,8.99279 0.72377,1.5989 1.6959,2.5865 3.28589,3.33817 1.31025,0.61943 1.40974,0.62544 10.39339,0.628 7.5498,0.002 9.23301,-0.0653 10.03993,-0.40247 z m -19.90416,-1.29392 c -1.01258,-0.45329 -2.39315,-1.90695 -2.78385,-2.93124 -0.45837,-1.2017 -0.35446,-3.14162 0.22926,-4.28003 1.78065,-3.47274 6.11372,-3.99917 8.69729,-1.05665 2.96528,3.37727 0.56582,8.66603 -3.91698,8.63361 -0.78758,-0.006 -1.78915,-0.17025 -2.22572,-0.36569 z m 3.85751,-2.19201 c 0.84317,-0.49807 1.56645,-1.78659 1.56645,-2.79061 0,-0.8302 -1.01543,-2.34214 -1.86002,-2.76951 -1.37455,-0.69553 -3.20497,-0.2016 -4.05381,1.09389 -0.24669,0.3765 -0.43617,1.19843 -0.43617,1.89206 0,1.04195 0.1353,1.36169 0.89959,2.12598 0.73718,0.73718 1.09999,0.89958 2.00969,0.89958 0.61057,0 1.45399,-0.20312 1.87427,-0.45139 z m -2.66688,-1.66527 c -0.61406,-0.61407 -0.6749,-1.28706 -0.17781,-1.96688 0.4042,-0.55277 1.57815,-0.63449 2.16137,-0.15047 0.54715,0.4541 0.49937,1.67873 -0.0862,2.20863 -0.643,0.58191 -1.25357,0.55254 -1.89739,-0.0913 z m 14.15521,3.81809 c -2.01078,-1.04364 -3.04664,-2.68149 -3.0369,-4.80178 0.0207,-4.50099 4.87164,-6.89217 8.53465,-4.20697 0.40439,0.29644 1.04555,1.17319 1.42479,1.94833 0.57034,1.16574 0.66227,1.63952 0.53182,2.74095 -0.32644,2.75626 -2.49782,4.73607 -5.19106,4.73308 -0.81083,-9e-4 -1.82535,-0.1863 -2.2633,-0.41361 z m 4.00762,-2.2111 c 2.39461,-1.46015 1.42792,-5.37613 -1.4215,-5.75831 -2.03706,-0.27323 -3.51216,1.14253 -3.51216,3.37089 0,0.89585 0.16557,1.2635 0.89958,1.99751 0.74786,0.74786 1.0937,0.89942 2.05052,0.89859 0.66749,-5.7e-4 1.50068,-0.21424 1.98356,-0.50868 z m -2.83327,-1.62326 c -0.69663,-0.69664 -0.57328,-1.50713 0.33186,-2.18035 0.67496,-0.50204 0.74806,-0.50659 1.38906,-0.0866 1.183,0.77513 0.70113,2.81237 -0.66521,2.81237 -0.28065,0 -0.75572,-0.24544 -1.05571,-0.54543 z m -1.57123,-14.25543 c 6.41076,-2.20494 10.72253,-7.86619 11.05402,-14.51365 0.15495,-3.10711 -0.24308,-5.16688 -1.51875,-7.85944 -1.06982,-2.25807 -2.57804,-4.18935 -4.5071,-5.77135 l -1.18954,-0.97553 h -8.84059 -8.84058 l -1.42854,1.07856 c -2.43241,1.83649 -4.61337,5.25256 -5.50607,8.62424 -0.52606,1.98688 -0.52717,5.8648 -0.002,7.89199 1.44112,5.56554 5.87414,10.13443 11.41074,11.76049 2.49734,0.73344 6.87148,0.62358 9.36866,-0.23531 z m -8.73125,-1.21121 c -5.02377,-1.37757 -8.97481,-5.27209 -10.46367,-10.31397 -0.68246,-2.31111 -0.63573,-5.59613 0.11479,-8.06979 0.79646,-2.62503 1.62139,-3.99994 3.69086,-6.15156 l 1.71775,-1.78594 h 8.61162 8.61162 l 1.73322,1.78594 c 2.94894,3.03864 4.24006,6.20933 4.24006,10.41261 0,6.18283 -3.71551,11.46414 -9.65729,13.72711 -2.06601,0.78685 -6.43851,0.98801 -8.59896,0.3956 z m 0.52389,-3.23677 c 1.06766,-0.53641 2.03856,-1.86572 2.27216,-3.11093 0.23005,-1.22627 -0.66421,-3.14208 -1.78586,-3.82593 -1.23971,-0.75582 -3.29738,-0.72617 -4.47054,0.0644 -1.15685,0.7796 -1.97215,2.66572 -1.72402,3.98835 0.48206,2.56965 3.39987,4.04385 5.70826,2.88408 z m -3.31465,-2.08875 c -0.90286,-0.97421 -0.84801,-2.05184 0.15553,-3.05538 0.67255,-0.67255 0.94351,-0.77764 1.65364,-0.64139 0.96724,0.1856 2.03993,1.26016 2.03993,2.04351 0,0.73667 -0.68972,1.99223 -1.20248,2.189 -0.95977,0.3683 -2.00484,0.15675 -2.64662,-0.53574 z m 13.60276,1.82601 c 2.2798,-1.69918 2.25059,-5.23166 -0.055,-6.65662 -1.18814,-0.73431 -3.17004,-0.74227 -4.35881,-0.0175 -1.18783,0.7242 -2.00322,2.56809 -1.76338,3.98768 0.20732,1.22716 1.22036,2.53649 2.36357,3.05486 1.04841,0.47539 2.92471,0.29413 3.81366,-0.36842 z m -3.81257,-1.77535 c -0.92161,-0.92161 -0.86345,-2.08767 0.15492,-3.10604 0.67255,-0.67255 0.94352,-0.77764 1.65365,-0.64139 1.01449,0.19466 2.03992,1.27159 2.03992,2.14236 0,0.34452 -0.30824,0.99273 -0.68498,1.44045 -0.88522,1.05203 -2.20731,1.12082 -3.16351,0.16462 z m -11.24226,-6.56046 c 3.20791,-1.64493 2.6684,-6.34303 -0.83737,-7.2919 -3.35033,-0.9068 -6.12289,2.65795 -4.49137,5.77467 0.529,1.01055 2.34752,2.11254 3.48616,2.11254 0.37489,0 1.20405,-0.26789 1.84258,-0.59531 z m -3.26211,-1.80514 c -0.74297,-0.58442 -0.94959,-1.92513 -0.44267,-2.87232 0.43123,-0.80575 1.72525,-1.19815 2.66606,-0.80846 0.96951,0.40159 1.3128,0.97902 1.3128,2.20818 0,1.09232 -0.97262,2.02097 -2.11666,2.02097 -0.39732,0 -1.0361,-0.24677 -1.41953,-0.54837 z m 13.0517,1.80514 c 4.09612,-2.10038 1.72568,-8.35582 -2.78118,-7.33936 -3.56942,0.80504 -4.12495,5.92384 -0.80646,7.43094 1.42515,0.64723 2.18463,0.62784 3.58764,-0.0916 z m -3.26212,-1.80514 c -1.31431,-1.03384 -0.76113,-3.45453 0.87138,-3.81309 0.87759,-0.19275 2.24037,0.38824 2.50046,1.06602 0.88041,2.2943 -1.49114,4.22642 -3.37184,2.74707 z m 12.96176,1.85538 c 1.845,-0.89315 2.67238,-3.16359 1.85333,-5.08582 -1.11849,-2.62497 -4.41459,-3.20896 -6.47613,-1.14743 -0.8116,0.81161 -0.9432,1.12684 -1.02919,2.4654 -0.12398,1.93006 0.50846,3.06229 2.11887,3.79333 1.43582,0.65179 2.14463,0.64667 3.53312,-0.0255 z m -3.24602,-1.93418 c -0.55525,-0.47761 -0.72913,-0.86436 -0.72913,-1.62179 0,-0.75743 0.17388,-1.14418 0.72913,-1.62179 0.84137,-0.72372 1.4804,-0.78429 2.53278,-0.24008 1.28508,0.66454 1.49844,2.39079 0.42783,3.4614 -0.83645,0.83644 -2.00386,0.84522 -2.96061,0.0223 z m -11.44419,-6.06323 c 1.75316,-1.17977 1.85658,-3.68065 0.20952,-5.06655 -1.66126,-1.39786 -4.28646,-0.58866 -4.98817,1.53756 -0.62434,1.89177 1.02008,4.13397 3.03184,4.13397 0.46628,0 1.25234,-0.27224 1.74681,-0.60498 z m -2.59939,-1.57783 c -0.50282,-0.64984 -0.55678,-1.20449 -0.17079,-1.75556 0.51175,-0.73063 1.54497,-0.71638 2.0667,0.0285 0.53005,0.75675 0.5197,0.89165 -0.11729,1.52863 -0.59979,0.59979 -1.39906,0.68896 -1.77862,0.19844 z m 12.07122,1.79946 c 2.02404,-1.04667 2.29836,-3.79791 0.52727,-5.28818 -2.47756,-2.08474 -6.29314,0.80771 -4.90513,3.7184 0.79872,1.67494 2.79221,2.38975 4.37786,1.56978 z m -2.51172,-2.13019 c -0.40149,-0.61274 -0.40149,-0.71018 0,-1.32292 0.7812,-1.19226 2.27329,-0.72948 2.27329,0.70507 0,1.29838 -1.55116,1.71996 -2.27329,0.61785 z"
       style="fill:#000000"
       id="path1-3" /></g></svg>
