<?xml version="1.0" encoding="UTF-8" standalone="no"?>
<!-- Created with Inkscape (http://www.inkscape.org/) -->

<svg
   width="40.320499mm"
   height="48.683334mm"
   viewBox="0 0 40.320499 48.683334"
   version="1.1"
   id="svg1"
   xml:space="preserve"
   xmlns:inkscape="http://www.inkscape.org/namespaces/inkscape"
   xmlns:sodipodi="http://sodipodi.sourceforge.net/DTD/sodipodi-0.dtd"
   xmlns="http://www.w3.org/2000/svg"
   xmlns:svg="http://www.w3.org/2000/svg"><sodipodi:namedview
     id="namedview1"
     pagecolor="#ffffff"
     bordercolor="#000000"
     borderopacity="0.25"
     inkscape:showpageshadow="2"
     inkscape:pageopacity="0.0"
     inkscape:pagecheckerboard="0"
     inkscape:deskcolor="#d1d1d1"
     inkscape:document-units="mm" /><defs
     id="defs1" /><g
     inkscape:label="Layer 1"
     inkscape:groupmode="layer"
     id="layer1"
     transform="translate(-8.5761978,-91.11923)"><path
       d="m 23.213371,139.50338 c -0.84961,-0.41276 -1.236263,-1.2587 -1.377067,-3.01282 l -0.1301,-1.62077 -1.753498,-0.81859 C 11.471121,130.09172 6.8198422,120.05234 9.1945584,110.83068 c 0.224843,-0.87312 0.9631486,-2.71859 1.6406806,-4.10104 1.059838,-2.16251 1.586166,-2.86457 3.768756,-5.02708 1.896294,-1.878849 3.053219,-2.780779 4.581721,-3.571879 l 2.044843,-1.05833 0.424396,-1.98437 c 0.663216,-3.10104 0.87524,-3.63302 1.5165,-3.80495 1.078565,-0.28918 1.510043,-0.18478 1.510043,0.36536 0,0.50547 0.176388,0.52917 3.937891,0.52917 3.715375,0 3.94571,-0.0299 4.076271,-0.52917 0.08994,-0.34393 0.360896,-0.52916 0.774039,-0.52916 1.222253,0 1.615338,0.59634 2.188211,3.31969 l 0.543038,2.58152 1.714754,0.90712 c 9.040618,4.782559 13.179313,15.171889 9.822598,24.657569 -1.092092,3.08612 -2.274756,4.90105 -4.932778,7.5699 -1.926537,1.93438 -2.848715,2.63154 -4.828712,3.65048 l -2.447396,1.25946 v 1.5954 c 0,1.41055 -0.0896,1.685 -0.773397,2.36879 l -0.773398,0.7734 -5.113581,-0.0179 c -2.812868,-0.01 -5.357478,-0.1364 -5.655667,-0.28127 z m 9.351063,-5.15077 0.07773,-1.61349 1.509771,-0.42584 c 3.721203,-1.04959 7.837334,-4.53769 9.782142,-8.28959 1.458631,-2.81397 1.984208,-4.92767 1.997586,-8.03363 0.01276,-2.96327 -0.360827,-4.72742 -1.555055,-7.34324 -1.613901,-3.53506 -4.055689,-6.10569 -7.582967,-7.98308 -2.924824,-1.556739 -4.609633,-1.963219 -8.143393,-1.964659 -2.633248,-0.001 -3.327208,0.0967 -5.156834,0.72685 -6.111037,2.104609 -10.373197,6.817789 -11.648714,12.881389 -0.817047,3.88411 -0.320477,7.65499 1.495376,11.35565 1.923367,3.91978 6.162914,7.54952 10.216944,8.74735 l 1.124479,0.33225 v 1.36041 c 0,0.74823 0.146059,1.50647 0.324575,1.68499 0.232094,0.23209 1.344075,0.30371 3.902604,0.25135 l 3.578029,-0.0732 z m -5.503691,-4.86194 c -3.109872,-0.40136 -5.400047,-1.50239 -7.805492,-3.75256 -3.123534,-2.92191 -4.751781,-7.50714 -4.11751,-11.59512 0.744073,-4.79566 3.285142,-8.37485 7.417587,-10.44793 9.136931,-4.583639 19.853253,1.9815 19.853253,12.16271 0,8.29417 -7.194898,14.68512 -15.347838,13.6329 z m 4.217326,-1.84612 c 0.981407,-0.69882 1.855534,-2.38435 1.864284,-3.59478 0.01001,-1.38428 -1.047283,-3.07019 -2.350908,-3.74866 -1.465463,-0.76269 -2.77551,-0.765 -4.100697,-0.007 -1.519408,0.86884 -2.089605,1.78672 -2.213963,3.56397 -0.08922,1.27509 -0.0043,1.67558 0.518322,2.44465 1.071564,1.57685 2.231979,2.18605 3.937027,2.06688 0.997649,-0.0697 1.754177,-0.30347 2.345935,-0.72484 z m -3.487717,-2.41527 c -0.581029,-0.33842 -0.609022,-1.64709 -0.04725,-2.20887 0.881958,-0.88195 2.494642,-0.11293 2.494642,1.1896 0,1.00374 -1.442566,1.60453 -2.447395,1.01927 z m -5.66719,-2.63667 c 2.192091,-1.7243 0.828507,-5.27964 -2.02491,-5.27964 -2.057823,0 -3.488539,2.44165 -2.529537,4.31688 0.790411,1.54557 3.173184,2.04926 4.554447,0.96276 z m -2.750582,-1.87229 c -0.24697,-0.46146 -0.207267,-0.65459 0.223039,-1.08489 0.430305,-0.43031 0.623427,-0.47001 1.084894,-0.22304 0.62026,0.33195 0.73483,1.06091 0.243902,1.55183 -0.490927,0.49093 -1.219882,0.37636 -1.551835,-0.2439 z m 19.873163,1.68588 c 1.135414,-1.01458 1.321302,-2.50608 0.468838,-3.76178 -1.736434,-2.55782 -5.814135,-1.0699 -5.414899,1.97585 0.198461,1.51404 1.371321,2.51354 2.949524,2.51354 0.915971,0 1.365687,-0.16389 1.996537,-0.72761 z m -2.647447,-1.50864 c -0.700533,-0.84409 0.333074,-2.17087 1.157898,-1.48633 0.497725,0.41308 0.543375,1.11117 0.101553,1.55299 -0.424204,0.42421 -0.871725,0.40052 -1.259451,-0.0667 z M 24.68096,114.27054 c 1.949282,-1.00801 2.81326,-3.42435 1.992672,-5.57303 -1.178741,-3.08649 -5.629247,-3.60175 -7.572764,-0.87674 -0.864578,1.21223 -0.908562,3.79533 -0.08358,4.90874 1.352176,1.82492 3.817519,2.49572 5.663675,1.54103 z m -3.165152,-3.02559 c -0.408362,-0.76303 -0.332695,-1.46966 0.209961,-1.96076 0.603895,-0.54652 1.08566,-0.55333 1.838525,-0.026 0.685827,0.48037 0.769004,1.48602 0.172264,2.08276 -0.590002,0.59 -1.88354,0.53409 -2.22075,-0.096 z m 15.850199,2.63947 c 1.242471,-0.88472 1.969235,-2.64418 1.735639,-4.20191 -0.142344,-0.94922 -0.429004,-1.46677 -1.28846,-2.32622 -1.49433,-1.49433 -3.027284,-1.76391 -4.859958,-0.85466 -1.684555,0.83577 -2.450897,2.02391 -2.450897,3.79989 0,1.60038 0.673952,2.80274 2.122963,3.78743 1.212998,0.82431 3.430184,0.72865 4.740713,-0.20453 z m -3.63576,-2.4452 c -0.449533,-0.44953 -0.39376,-1.6851 0.09827,-2.17714 0.566265,-0.56626 1.329873,-0.52221 1.965476,0.11339 0.636832,0.63684 0.661636,1.01605 0.117289,1.79322 -0.453759,0.64783 -1.65477,0.7968 -2.181039,0.27053 z M 27.384165,95.743321 c 1.060147,-0.0892 2.671681,-0.0547 3.581187,0.0766 l 1.653645,0.23879 v -1.27913 -1.27912 h -3.96875 -3.968749 v 1.35122 c 0,1.07796 0.07838,1.32115 0.387563,1.2025 0.21316,-0.0818 1.254957,-0.22169 2.315104,-0.31088 z"
       style="fill:#000000"
       id="path1-6"
       inkscape:export-filename="type1.svg"
       inkscape:export-xdpi="96"
       inkscape:export-ydpi="96" /></g></svg>
