<svg width="60" height="60" viewBox="0 0 60 60" fill="none" xmlns="http://www.w3.org/2000/svg">
<path d="M51.1756 18.4555L41.5091 8.78677C41.1073 8.38478 40.6302 8.0659 40.1051 7.84834C39.58 7.63078 39.0172 7.5188 38.4488 7.5188C37.8804 7.5188 37.3176 7.63078 36.7925 7.84834C36.2674 8.0659 35.7903 8.38478 35.3885 8.78677L8.71034 35.4671C8.30706 35.8677 7.98734 36.3445 7.76971 36.8696C7.55208 37.3947 7.44086 37.9579 7.44252 38.5263V48.195C7.44252 49.3426 7.8984 50.4432 8.70987 51.2547C9.52135 52.0661 10.6219 52.522 11.7695 52.522H21.4382C22.0067 52.5236 22.5698 52.4123 23.0949 52.1947C23.62 51.977 24.0967 51.6574 24.4974 51.2542L51.1756 24.5739C51.9868 23.7624 52.4425 22.662 52.4425 21.5147C52.4425 20.3673 51.9868 19.2669 51.1756 18.4555ZM21.0726 47.3296H12.6349V38.8919L30.8084 20.7185L39.246 29.1562L21.0726 47.3296ZM42.924 25.4782L34.4863 17.0405L38.4542 13.0727L46.8919 21.5103L42.924 25.4782Z" fill="#000"/>
</svg>
