<?xml version="1.0" encoding="UTF-8" standalone="no"?>
<!-- Created with Inkscape (http://www.inkscape.org/) -->

<svg
   width="40.831787mm"
   height="34.599438mm"
   viewBox="0 0 40.831787 34.599438"
   version="1.1"
   id="svg1"
   xml:space="preserve"
   xmlns:inkscape="http://www.inkscape.org/namespaces/inkscape"
   xmlns:sodipodi="http://sodipodi.sourceforge.net/DTD/sodipodi-0.dtd"
   xmlns="http://www.w3.org/2000/svg"
   xmlns:svg="http://www.w3.org/2000/svg"><sodipodi:namedview
     id="namedview1"
     pagecolor="#ffffff"
     bordercolor="#000000"
     borderopacity="0.25"
     inkscape:showpageshadow="2"
     inkscape:pageopacity="0.0"
     inkscape:pagecheckerboard="0"
     inkscape:deskcolor="#d1d1d1"
     inkscape:document-units="mm" /><defs
     id="defs1" /><g
     inkscape:label="Layer 1"
     inkscape:groupmode="layer"
     id="layer1"
     transform="translate(-12.882096,-151.11158)"><path
       style="fill:#000000"
       d="m 29.153965,185.31537 c -3.89913,-0.85794 -7.48012,-2.78309 -10.22514,-5.49708 -3.85678,-3.81317 -6.04673,-9.09664 -6.04673,-14.58831 0,-6.04603 2.29149,-10.67427 5.96555,-12.04892 5.57731,-2.08673 16.08459,-2.6998 23.2709,-1.35778 6.54483,1.22223 8.32762,2.18346 9.95083,5.3652 1.56887,3.07525 2.11718,8.90229 1.19763,12.72768 -1.16886,4.86259 -4.3602,9.51382 -8.45303,12.31993 -4.2678,2.92607 -10.65149,4.18132 -15.66001,3.07928 z m 5.54178,-5.76019 c 0.37207,-0.32742 0.74983,-0.9775 0.83946,-1.44461 0.13625,-0.71013 0.0312,-0.9811 -0.64139,-1.65365 -1.01837,-1.01837 -2.18443,-1.07653 -3.10604,-0.15491 -1.96701,1.967 0.82286,5.08805 2.90797,3.25317 z m -9.09626,-0.20775 c 1.00869,-0.53983 0.34605,-2.63652 -0.83325,-2.63652 -0.70165,0 -1.30081,0.73386 -1.30081,1.59325 0,1.11546 1.0448,1.62623 2.13406,1.04327 z m 17.30316,-0.24461 c 1.08419,-1.19801 -0.47061,-2.91822 -1.83159,-2.02647 -0.7735,0.50681 -0.87035,1.35842 -0.23442,2.06112 0.57118,0.63114 1.47723,0.61595 2.06601,-0.0347 z m -20.82267,-3.14808 c 3.97507,-2.38909 9.12502,-3.50092 13.66132,-2.94936 3.57338,0.43448 7.63422,1.9278 9.92866,3.65114 l 0.90558,0.68017 0.90259,-1.0405 c 1.11417,-1.28441 2.9748,-5.05768 2.9748,-6.03278 0,-0.42103 -0.2829,-1.0032 -0.6809,-1.4012 -0.724,-0.724 -0.6017,-0.72104 -3.67616,-0.0889 -1.55443,0.31959 -3.58389,0.0145 -5.12153,-0.76995 -3.20098,-1.63302 -4.90561,-5.1159 -4.24717,-8.67775 0.34266,-1.85358 0.70821,-2.58851 2.07027,-4.16225 1.84176,-2.128 1.26495,-2.36029 -5.82455,-2.3457 -4.75706,0.01 -6.06788,0.20153 -6.06788,0.88757 0,0.14245 0.53271,0.91302 1.18379,1.71238 4.05545,4.979 1.48378,12.22479 -4.74767,13.37673 -1.22636,0.22671 -1.90598,0.19828 -3.44488,-0.14409 -2.2111,-0.49192 -3.08142,-0.27365 -3.56512,0.8941 -0.31976,0.77199 -0.034,1.85919 1.05611,4.01731 0.52188,1.03322 2.31004,3.67843 2.48662,3.67843 0.0371,0 1.02989,-0.5784 2.20612,-1.28533 z m 2.32803,-10.12731 c 3.78246,-1.77796 4.1812,-7.23597 0.70924,-9.70822 -2.74344,-1.9535 -6.72321,-0.93292 -8.29215,2.12647 -0.60568,1.18105 -0.66625,3.45881 -0.12634,4.751 1.19292,2.85507 4.82235,4.18776 7.70925,2.83075 z m 22.7867,0.0118 c 3.50059,-1.6946 4.27997,-5.97843 1.61391,-8.87077 -3.5158,-3.81418 -9.73278,-1.31314 -9.73278,3.91543 0,3.99907 4.46489,6.72421 8.11887,4.95534 z"
       id="path1"
       sodipodi:nodetypes="sssssssssssssssssscssccssscssssssscssssssssssssssssss" /></g></svg>
