<?xml version="1.0" encoding="UTF-8" standalone="no"?>
<!-- Created with Inkscape (http://www.inkscape.org/) -->

<svg
   width="40.081902mm"
   height="37.523598mm"
   viewBox="0 0 40.081902 37.523598"
   version="1.1"
   id="svg1"
   xml:space="preserve"
   xmlns:inkscape="http://www.inkscape.org/namespaces/inkscape"
   xmlns:sodipodi="http://sodipodi.sourceforge.net/DTD/sodipodi-0.dtd"
   xmlns="http://www.w3.org/2000/svg"
   xmlns:svg="http://www.w3.org/2000/svg"><sodipodi:namedview
     id="namedview1"
     pagecolor="#ffffff"
     bordercolor="#000000"
     borderopacity="0.25"
     inkscape:showpageshadow="2"
     inkscape:pageopacity="0.0"
     inkscape:pagecheckerboard="0"
     inkscape:deskcolor="#d1d1d1"
     inkscape:document-units="mm" /><defs
     id="defs1" /><g
     inkscape:label="Layer 1"
     inkscape:groupmode="layer"
     id="layer1"
     transform="translate(-72.260332,-99.097455)"><path
       d="m 87.33912,136.23107 c -2.32585,-0.5547 -6.096331,-2.48683 -8.105861,-4.15373 -2.958955,-2.45445 -5.090062,-5.67254 -6.393744,-9.6549 -0.487888,-1.49035 -0.577019,-2.37224 -0.579139,-5.73019 -0.0022,-3.49555 0.07289,-4.18958 0.629816,-5.82083 1.680404,-4.92194 4.242527,-8.3148 8.358785,-11.068996 l 1.053606,-0.70497 h 9.930133 9.930134 l 1.45168,0.972576 c 5.44351,3.647 8.72771,9.90187 8.72771,16.62222 0,9.50636 -6.20089,17.29213 -15.610412,19.60024 -1.895208,0.46488 -7.33506,0.42931 -9.392708,-0.0614 z m 8.741807,-3.93238 c 6.018413,-1.52986 10.648083,-6.32124 11.932963,-12.34978 0.77614,-3.64162 0.0868,-7.91496 -1.82702,-11.32645 -0.44901,-0.80037 -1.68614,-2.31841 -2.74918,-3.37344 l -1.93279,-1.91824 h -9.281738 -9.281738 l -2.041828,2.05053 c -3.172096,3.1856 -4.795019,7.05727 -4.796762,11.44323 -0.0028,7.10726 5.110325,13.60594 12.162328,15.458 1.931768,0.50733 5.851585,0.51543 7.815765,0.0161 z m -7.551182,-1.60773 C 82.432259,129.0725 78.14668,123.81917 77.757366,117.486 c -0.248628,-4.04456 1.343417,-8.1853 4.247027,-11.04606 l 1.54444,-1.52165 h 8.685079 8.685078 l 1.54444,1.52165 c 7.96801,7.85041 4.23677,21.47238 -6.647086,24.26717 -1.95774,0.50271 -5.360208,0.49517 -7.286599,-0.0161 z m 0.967372,-3.30863 c 2.811728,-1.73774 2.18973,-6.20357 -0.997009,-7.15834 -2.907954,-0.87125 -5.778162,1.90328 -4.991419,4.82502 0.272396,1.0116 1.343525,2.27169 2.242931,2.63861 1.017535,0.41511 2.817207,0.26843 3.745497,-0.30529 z m -3.288043,-1.47446 c -0.555373,-0.22345 -1.161547,-1.65071 -0.969843,-2.28353 0.631568,-2.08484 3.045059,-2.40338 4.041046,-0.53334 0.476131,0.89397 0.368196,1.6347 -0.341631,2.34453 -0.622878,0.62287 -1.834378,0.83252 -2.729572,0.47234 z m 13.735003,0.76307 c 2.128983,-2.28238 0.955383,-5.99807 -2.073987,-6.56639 -3.149502,-0.59085 -5.655628,2.61051 -4.351512,5.55868 0.754491,1.70566 1.8469,2.33133 3.845812,2.20268 1.431055,-0.0921 1.642163,-0.1899 2.579687,-1.19497 z m -4.4149,-1.23541 c -0.742975,-0.74298 -0.815589,-1.43679 -0.262343,-2.50665 0.905768,-1.75156 3.350479,-1.32241 3.961759,0.69546 0.206262,0.68088 -0.423992,2.05473 -1.05341,2.29626 -0.920429,0.3532 -2.006905,0.15403 -2.646006,-0.48507 z m -11.339799,-6.20431 c 1.839103,-0.83523 2.738058,-3.13947 1.990221,-5.10143 -0.654695,-1.7176 -2.790164,-2.80056 -4.574793,-2.32001 -2.925886,0.78786 -4.04105,4.10525 -2.139628,6.36496 1.297388,1.54186 2.877413,1.8952 4.7242,1.05648 z m -2.67109,-1.66791 c -0.784037,-0.44965 -1.172761,-1.05057 -1.182211,-1.82757 -0.0107,-0.87976 0.844247,-1.97721 1.709475,-2.19437 0.768545,-0.19289 2.103595,0.40111 2.351089,1.04607 0.786719,2.05015 -1.096864,3.99755 -2.878353,2.97587 z m 12.435464,1.64246 c 1.899795,-0.91968 2.807026,-3.45149 1.877174,-5.23864 -1.574793,-3.0267 -5.619235,-3.0267 -7.194028,0 -0.923912,1.77573 -0.02807,4.30041 1.857037,5.23354 1.355403,0.67093 2.082182,0.672 3.459817,0.005 z m -2.694732,-1.57931 c -1.032835,-0.43403 -1.482865,-2.05146 -0.882777,-3.17273 0.607014,-1.13422 2.772065,-1.17387 3.613629,-0.0662 0.491714,0.6472 0.439164,2.01929 -0.102315,2.67147 -0.536472,0.64615 -1.794817,0.91779 -2.628537,0.56744 z m 12.84188,1.38392 c 1.28761,-0.96133 1.75905,-1.86626 1.75905,-3.37646 0,-2.29834 -1.67243,-3.93699 -3.9825,-3.90207 -3.09094,0.0467 -4.896677,3.4248 -3.25265,6.08489 1.105857,1.78932 3.87098,2.39204 5.4761,1.19364 z m -3.49694,-1.67588 c -0.50494,-0.39718 -0.697132,-0.79241 -0.697132,-1.43356 0,-1.25252 0.221042,-1.68613 1.088112,-2.13451 0.95445,-0.49356 1.93101,-0.26622 2.62024,0.60998 0.78017,0.99183 0.6759,2.00951 -0.28907,2.82149 -0.98377,0.82778 -1.7919,0.86834 -2.72215,0.1366 z m -11.817573,-5.87553 c 0.861443,-0.43589 1.860277,-1.9454 1.859036,-2.80949 -0.0023,-1.57643 -1.72143,-3.20202 -3.386328,-3.20202 -1.136579,0 -2.5106,1.0425 -2.889708,2.19248 -0.863607,2.61966 1.960932,5.06182 4.417,3.81903 z m -2.320392,-1.8311 c -0.527075,-0.52707 -0.383635,-1.74515 0.245135,-2.08166 0.711484,-0.38077 1.688062,0.0193 1.884943,0.77215 0.304948,1.16612 -1.291822,2.14777 -2.130078,1.30951 z m 12.114994,1.77422 c 1.111147,-0.57459 1.590421,-1.41224 1.590421,-2.77963 0,-1.36739 -0.479274,-2.20504 -1.590421,-2.77964 -2.251047,-1.16407 -5.064377,0.79887 -4.665736,3.25541 0.347458,2.14113 2.717416,3.31138 4.665736,2.30386 z m -2.523324,-2.10043 c -0.750285,-1.14508 0.49159,-2.40165 1.722503,-1.74288 0.716325,0.38336 0.733842,1.73462 0.02739,2.1127 -0.803318,0.42993 -1.293797,0.32627 -1.749891,-0.36982 z"
       style="fill:#000000"
       id="path1-2" /></g></svg>
